<svg width="238" height="238" viewBox="0 0 238 238" fill="none" xmlns="http://www.w3.org/2000/svg">
<rect width="238" height="238" rx="20" fill="#0E0E11"/>
<path d="M164.833 150.25C165.938 150.25 166.998 150.689 167.78 151.47C168.561 152.252 169 153.312 169 154.417V163.108L171.946 166.054C172.705 166.84 173.125 167.893 173.115 168.985C173.106 170.077 172.668 171.123 171.895 171.895C171.123 172.668 170.078 173.106 168.985 173.115C167.893 173.125 166.84 172.705 166.054 171.946L160.667 166.558V154.417C160.667 153.312 161.106 152.252 161.887 151.47C162.668 150.689 163.728 150.25 164.833 150.25Z" fill="white"/>
<path fill-rule="evenodd" clip-rule="evenodd" d="M69 48.1667C69 47.0616 69.439 46.0018 70.2204 45.2204C71.0018 44.439 72.0616 44 73.1667 44C74.2717 44 75.3315 44.439 76.1129 45.2204C76.8943 46.0018 77.3333 47.0616 77.3333 48.1667V69C77.3333 70.1051 76.8943 71.1649 76.1129 71.9463C75.3315 72.7277 74.2717 73.1667 73.1667 73.1667C72.0616 73.1667 71.0018 72.7277 70.2204 71.9463C69.439 71.1649 69 70.1051 69 69V64.8333H56.5C55.3949 64.8333 54.3351 65.2723 53.5537 66.0537C52.7723 66.8351 52.3333 67.8949 52.3333 69V85.6667H160.667V69C160.667 67.8949 160.228 66.8351 159.446 66.0537C158.665 65.2723 157.605 64.8333 156.5 64.8333H144V56.5H156.5C159.815 56.5 162.995 57.817 165.339 60.1612C167.683 62.5054 169 65.6848 169 69V135.958C176.298 137.013 182.926 140.793 187.55 146.537C192.174 152.281 194.451 159.563 193.923 166.918C193.395 174.273 190.101 181.155 184.704 186.18C179.307 191.204 172.207 193.998 164.833 194C160.131 194.004 155.497 192.869 151.328 190.692C147.16 188.515 143.58 185.361 140.896 181.5H56.5C53.1848 181.5 50.0054 180.183 47.6612 177.839C45.317 175.495 44 172.315 44 169V69C44 65.6848 45.317 62.5054 47.6612 60.1612C50.0054 57.817 53.1848 56.5 56.5 56.5H69V48.1667ZM135.667 164.833C135.665 157.818 138.191 151.038 142.783 145.735C147.375 140.431 153.724 136.96 160.667 135.958V94H52.3333V169C52.3333 170.105 52.7723 171.165 53.5537 171.946C54.3351 172.728 55.3949 173.167 56.5 173.167H136.875C136.071 170.462 135.664 167.655 135.667 164.833ZM164.833 185.667C170.359 185.667 175.658 183.472 179.565 179.565C183.472 175.658 185.667 170.359 185.667 164.833C185.667 159.308 183.472 154.009 179.565 150.102C175.658 146.195 170.359 144 164.833 144C159.308 144 154.009 146.195 150.102 150.102C146.195 154.009 144 159.308 144 164.833C144 170.359 146.195 175.658 150.102 179.565C154.009 183.472 159.308 185.667 164.833 185.667Z" fill="white"/>
<path d="M131.5 73.1667C130.395 73.1667 129.335 72.7277 128.554 71.9463C127.772 71.1649 127.333 70.1051 127.333 69V64.8333H85.6667V56.5H127.333V48.1667C127.333 47.0616 127.772 46.0018 128.554 45.2204C129.335 44.439 130.395 44 131.5 44C132.605 44 133.665 44.439 134.446 45.2204C135.228 46.0018 135.667 47.0616 135.667 48.1667V69C135.667 70.1051 135.228 71.1649 134.446 71.9463C133.665 72.7277 132.605 73.1667 131.5 73.1667Z" fill="white"/>
</svg>
